# xmcd CD database file
#
# Track frame offsets:
#	151
#	27873
#	135575
#	188155
#	216415
#	269771
#
# Disc length: 4440 seconds
#
# Revision: 0
# Processed by: cddbd v1.5.2PL0 Copyright (c) Steve Scherf et al.
# Submitted via: CDex 1.51
#
DISCID=5a115606
DTITLE=North Texas Wind Symphony - Poetics
DYEAR=2005
DGENRE=Wind Band
TTITLE0=Steven Bryant - Stampede
TTITLE1=Franco Cesarini - Poeme alpestre
TTITLE2=Michael Gandolfini - Vientos Y Tangos
TTITLE3=Joseph Schwantner - Percussion Concerto I. Con Forza
TTITLE4=Joseph Schwantner - Percussion Concerto II. 'In Memoriam Steven Albert'
TTITLE5=Joseph Schwantner - Percussion Concerto III. Ritmico con brio
EXTD=YEAR: 2005
EXTT0=
EXTT1=
EXTT2=
EXTT3=
EXTT4=
EXTT5=
PLAYORDER=
